<svg data-v-423bf9ae="" xmlns="http://www.w3.org/2000/svg" viewBox="0 0 103.3165851943427 60" class="font"><!----><!----><!----><g data-v-423bf9ae="" id="1ea37c78-3aed-47b2-9391-b0febc89c599" fill="white" transform="matrix(5.025125403374665,0,0,5.025125403374665,-1.1055286314328328,-18.391960122916984)"><path d="M0.22 3.66L2.84 3.66L2.84 4.31L1.97 4.31L1.97 15.47L1.09 15.47L1.09 4.31L0.22 4.31L0.22 3.66ZM5.91 5.84L5.91 9.34L5.91 9.34Q5.91 9.67 5.74 9.85L5.74 9.85L5.74 9.85Q5.58 10.03 5.25 10.10L5.25 10.10L5.25 10.10Q5.58 10.19 5.74 10.37L5.74 10.37L5.74 10.37Q5.91 10.55 5.91 10.88L5.91 10.88L5.91 15.47L5.03 15.47L5.03 10.88L5.03 10.88Q5.03 10.71 4.99 10.62L4.99 10.62L4.99 10.62Q4.95 10.53 4.87 10.49L4.87 10.49L4.87 10.49Q4.79 10.45 4.66 10.45L4.66 10.45L4.66 10.45Q4.54 10.44 4.38 10.44L4.38 10.44L4.38 15.47L3.50 15.47L3.50 4.97L4.48 4.97L4.48 4.97Q4.93 4.97 5.25 5.04L5.25 5.04L5.25 5.04Q5.56 5.11 5.74 5.29L5.74 5.29L5.74 5.29Q5.91 5.48 5.91 5.84L5.91 5.84ZM5.03 9.34L5.03 6.06L5.03 6.06Q5.03 5.90 4.99 5.81L4.99 5.81L4.99 5.81Q4.95 5.72 4.87 5.68L4.87 5.68L4.87 5.68Q4.79 5.64 4.66 5.63L4.66 5.63L4.66 5.63Q4.54 5.63 4.38 5.63L4.38 5.63L4.38 9.78L4.38 9.78Q4.54 9.78 4.66 9.78L4.66 9.78L4.66 9.78Q4.79 9.77 4.87 9.73L4.87 9.73L4.87 9.73Q4.95 9.69 4.99 9.60L4.99 9.60L4.99 9.60Q5.03 9.51 5.03 9.34L5.03 9.34ZM8.31 4.97L9.19 15.47L8.31 15.47L8.18 13.20L7.57 13.20L7.44 15.47L6.56 15.47L7.44 4.97L8.31 4.97ZM7.62 12.49L8.13 12.49L7.88 7.16L7.62 12.49ZM12.47 5.95L12.47 9.34L11.59 9.34L11.59 5.95L11.59 5.95Q11.59 5.72 11.48 5.62L11.48 5.62L11.48 5.62Q11.36 5.52 11.21 5.52L11.21 5.52L11.21 5.52Q11.12 5.52 11.04 5.55L11.04 5.55L11.04 5.55Q10.95 5.58 10.88 5.64L10.88 5.64L10.88 5.64Q10.81 5.70 10.76 5.78L10.76 5.78L10.76 5.78Q10.72 5.86 10.72 5.95L10.72 5.95L10.72 14.49L10.72 14.49Q10.72 14.58 10.76 14.66L10.76 14.66L10.76 14.66Q10.81 14.75 10.88 14.80L10.88 14.80L10.88 14.80Q10.95 14.86 11.04 14.89L11.04 14.89L11.04 14.89Q11.12 14.92 11.21 14.92L11.21 14.92L11.21 14.92Q11.36 14.92 11.48 14.82L11.48 14.82L11.48 14.82Q11.59 14.72 11.59 14.49L11.59 14.49L11.59 10.66L12.47 10.66L12.47 14.49L12.47 14.49Q12.47 14.76 12.35 14.97L12.35 14.97L12.35 14.97Q12.24 15.18 12.05 15.32L12.05 15.32L12.05 15.32Q11.87 15.46 11.63 15.53L11.63 15.53L11.63 15.53Q11.39 15.60 11.14 15.60L11.14 15.60L11.14 15.60Q10.90 15.60 10.66 15.53L10.66 15.53L10.66 15.53Q10.43 15.46 10.25 15.32L10.25 15.32L10.25 15.32Q10.06 15.18 9.95 14.97L9.95 14.97L9.95 14.97Q9.84 14.77 9.84 14.49L9.84 14.49L9.84 5.95L9.84 5.95Q9.84 5.68 9.96 5.47L9.96 5.47L9.96 5.47Q10.07 5.26 10.25 5.12L10.25 5.12L10.25 5.12Q10.44 4.98 10.68 4.91L10.68 4.91L10.68 4.91Q10.92 4.84 11.16 4.84L11.16 4.84L11.16 4.84Q11.41 4.84 11.64 4.91L11.64 4.91L11.64 4.91Q11.87 4.98 12.06 5.12L12.06 5.12L12.06 5.12Q12.24 5.26 12.36 5.47L12.36 5.47L12.36 5.47Q12.47 5.67 12.47 5.95L12.47 5.95ZM14.99 10.22L15.75 15.47L14.88 15.47L14.22 10.66L14.22 15.47L13.34 15.47L13.34 4.97L14.22 4.97L14.22 9.78L14.88 4.97L15.75 4.97L14.99 10.22ZM16.52 4.97L17.39 4.97L17.39 15.47L16.52 15.47L16.52 4.97ZM18.16 3.66L20.78 3.66L20.78 4.31L19.91 4.31L19.91 15.47L19.03 15.47L19.03 4.31L18.16 4.31L18.16 3.66Z"></path></g><!----><!----></svg>